<?xml version="1.0" encoding="utf-8"?>
<!-- Generator: Adobe Illustrator 23.1.0, SVG Export Plug-In . SVG Version: 6.00 Build 0)  -->
<svg version="1.1" id="Layer_1" xmlns="http://www.w3.org/2000/svg" xmlns:xlink="http://www.w3.org/1999/xlink" x="0px" y="0px"
	 viewBox="0 0 2108 305" style="enable-background:new 0 0 2108 305;" xml:space="preserve">
<style type="text/css">
	.st0{fill:#1254C2;}
	.st1{fill:#FF8106;}
</style>
<g>
	<g>
		<g>
			<g>
				<path class="st0" d="M1414.86,41.03v26.86c0,2.55-2.07,4.62-4.62,4.62h-53.62c-2.55,0-4.62,2.07-4.62,4.62v182.25
					c0,2.55-2.07,4.62-4.62,4.62h-36.21c-2.55,0-4.62-2.07-4.62-4.62V77.13c0-2.55-2.07-4.62-4.62-4.62h-53.3
					c-2.55,0-4.62-2.07-4.62-4.62V41.03c0-2.55,2.07-4.62,4.62-4.62h161.62C1412.79,36.41,1414.86,38.47,1414.86,41.03z"/>
				<path class="st0" d="M2032.16,261.76l-50.5-84.17c-0.84-1.39-2.34-2.24-3.96-2.24h-12.75c-2.55,0-4.62,2.07-4.62,4.62v79.41
					c0,2.55-2.07,4.62-4.62,4.62h-36.21c-2.55,0-4.62-2.07-4.62-4.62V41.03c0-2.55,2.07-4.62,4.62-4.62h82.1
					c26.44,0,46.58,6.45,60.45,19.34c13.86,12.9,20.79,29.88,20.79,50.94c0,17.2-4.79,31.59-14.35,43.2
					c-8.46,10.27-20.24,17.51-35.34,21.72c-2.98,0.83-4.35,4.26-2.71,6.89l48.96,78.45c1.92,3.08-0.29,7.07-3.92,7.07h-39.35
					C2034.5,264.01,2032.99,263.15,2032.16,261.76z M1960.32,139.46c0,2.55,2.07,4.62,4.62,4.62h32.78c26,0,39.01-11.49,39.01-34.5
					c0-10.96-3.17-19.5-9.51-25.63c-6.34-6.13-16.17-9.19-29.5-9.19h-32.78c-2.55,0-4.62,2.07-4.62,4.62V139.46z"/>
				<g>
					<path class="st0" d="M1733.87,32.01c0.84,0.11,1.42,0.89,1.28,1.72v0l-0.78,5.04l-0.97,6.85c-0.62,4.58-1.19,9.19-1.72,13.81
						c-1.05,9.24-1.92,18.51-2.59,27.78c-1.33,18.55-1.91,37.12-1.31,55.49c0.31,9.18,0.91,18.32,1.94,27.32
						c1.02,9,2.47,17.87,4.52,26.44c2.05,8.55,4.72,16.82,8.28,24.28c1.78,3.73,3.78,7.24,6.04,10.42c2.25,3.19,4.75,6.04,7.5,8.44
						c2.75,2.41,5.74,4.39,9.01,5.87c3.27,1.47,6.8,2.47,10.57,2.99c0.95,0.11,1.89,0.23,2.86,0.28l0.73,0.05l0.78,0.04
						c0.52,0.02,1.05,0.07,1.56,0.07c2.09,0.08,4.15,0.05,6.21-0.07c4.1-0.24,8.14-0.85,12.03-1.94
						c7.78-2.15,15.01-6.19,21.21-11.93c6.21-5.72,11.37-13,15.52-21.01c4.16-8.01,7.36-16.73,9.86-25.71
						c2.5-8.99,4.31-18.26,5.62-27.64c1.31-9.38,2.11-18.87,2.5-28.41c0.37-9.53,0.4-19.11-0.18-28.68
						c1.65,9.45,2.71,19.02,3.42,28.63c0.69,9.61,0.97,19.28,0.72,28.99c-0.25,9.7-1.02,19.45-2.57,29.17
						c-1.56,9.72-3.89,19.44-7.52,28.93c-3.63,9.46-8.61,18.76-15.63,26.92c-3.5,4.07-7.52,7.82-11.99,11.06
						c-4.46,3.24-9.37,5.95-14.51,8.04c-5.14,2.1-10.51,3.56-15.9,4.5c-2.7,0.47-5.41,0.82-8.11,1.02
						c-0.68,0.07-1.35,0.09-2.03,0.14l-1.02,0.06l-1.07,0.02c-1.42,0.04-2.86,0-4.31-0.05c-5.78-0.26-11.68-1.32-17.36-3.3
						c-5.67-1.97-11.04-4.86-15.83-8.35c-4.8-3.49-9.02-7.56-12.69-11.89c-3.69-4.33-6.84-8.93-9.61-13.62
						c-5.53-9.41-9.58-19.2-12.86-29.02c-3.27-9.83-5.75-19.74-7.74-29.65c-2-9.91-3.51-19.82-4.69-29.73
						c-2.35-19.81-3.41-39.59-3.68-59.32c-0.13-9.87-0.05-19.72,0.22-29.59c0.14-4.93,0.33-9.87,0.57-14.82
						c0.12-2.48,0.26-4.96,0.42-7.45l0.43-6.15c0.07-0.84,0.83-1.46,1.67-1.35L1733.87,32.01z"/>
					<g>
						<path class="st0" d="M1866.08,32.63c-0.12,5.05-0.26,10.13-0.74,15.16c-0.26,2.82,0.52,4.88,2.29,6.99
							c5,6.04,9.86,12.18,14.63,18.4c0.79,1.05,1.23,2.67,1.17,4.01c-0.15,3.63-0.66,7.26-1.08,11.51
							c-6.43-5.11-12.37-9.82-18.72-14.87c-0.19,1.51-0.29,2.55-0.45,3.58c-1.18,7.12-2.3,14.28-3.58,21.4
							c-0.58,3.29-2.61,5.38-5.75,6.63c-6.43,2.59-12.78,5.4-19.25,8.15c-1.37-6.52,1.82-10.93,5.8-14.82
							c3.86-3.77,5.3-8.15,5.72-13.46c1.2-14.94,2.71-29.86,4.53-44.73c0.47-3.91,2.28-7.73,3.91-11.41c1.1-2.47,2.96-4.65,6.3-3.72
							C1863.99,26.32,1866.16,29.17,1866.08,32.63z"/>
						<path class="st0" d="M1847.87,51.58c-0.6,5.95-1.36,11-1.54,16.07c-0.14,3.9-1.64,6.26-5.16,7.98
							c-4.07,2-7.86,4.57-12.26,7.18c0.17-4.56,0.29-8.51,0.48-12.45c0.04-0.64,0.27-1.45,0.71-1.87
							C1835.77,63.04,1841.49,57.64,1847.87,51.58z"/>
					</g>
				</g>
				<circle class="st1" cx="1546.71" cy="153.58" r="79.29"/>
				<path class="st1" d="M1546.71,68.02L1546.71,68.02c3.43,0,6.24-2.81,6.24-6.24V42.24c0-3.43-2.81-6.24-6.24-6.24h0
					c-3.43,0-6.24,2.81-6.24,6.24v19.55C1540.48,65.21,1543.28,68.02,1546.71,68.02z"/>
				<path class="st1" d="M1607.32,93.19L1607.32,93.19c2.42,2.43,6.39,2.44,8.82,0.02l13.84-13.8c2.43-2.42,2.44-6.39,0.02-8.82v0
					c-2.42-2.43-6.39-2.44-8.82-0.02l-13.84,13.8C1604.9,86.79,1604.89,90.76,1607.32,93.19z"/>
				<path class="st1" d="M1632.27,153.88L1632.27,153.88c-0.01,3.43,2.79,6.25,6.22,6.26l19.55,0.07c3.43,0.01,6.25-2.79,6.26-6.22
					v0c0.01-3.43-2.79-6.25-6.22-6.26l-19.55-0.07C1635.1,147.65,1632.28,150.44,1632.27,153.88z"/>
				<path class="st1" d="M1606.9,214.39L1606.9,214.39c-2.44,2.41-2.46,6.38-0.05,8.82l13.75,13.89c2.41,2.44,6.38,2.46,8.82,0.05v0
					c2.44-2.41,2.46-6.38,0.05-8.82l-13.75-13.89C1613.31,212,1609.34,211.98,1606.9,214.39z"/>
				<path class="st1" d="M1546.12,239.14L1546.12,239.14c-3.43-0.02-6.26,2.76-6.28,6.19l-0.14,19.55
					c-0.02,3.43,2.76,6.26,6.19,6.28l0,0c3.43,0.02,6.26-2.76,6.28-6.19l0.14-19.55C1552.34,241.99,1549.55,239.16,1546.12,239.14z"
					/>
				<path class="st1" d="M1485.7,213.55L1485.7,213.55c-2.41-2.45-6.37-2.48-8.82-0.08l-13.94,13.7c-2.45,2.4-2.48,6.37-0.08,8.82v0
					c2.41,2.45,6.37,2.48,8.82,0.08l13.94-13.7C1488.07,219.97,1488.1,216,1485.7,213.55z"/>
				<path class="st1" d="M1461.16,152.69L1461.16,152.69c0.04-3.43-2.74-6.27-6.17-6.3l-19.54-0.2c-3.43-0.04-6.27,2.74-6.3,6.17v0
					c-0.04,3.43,2.74,6.27,6.17,6.3l19.54,0.2C1458.29,158.9,1461.12,156.12,1461.16,152.69z"/>
				<path class="st1" d="M1486.95,92.35L1486.95,92.35c2.46-2.4,2.5-6.37,0.11-8.82l-13.65-13.99c-2.4-2.46-6.37-2.5-8.82-0.11v0
					c-2.46,2.4-2.5,6.37-0.11,8.82l13.65,13.99C1480.53,94.7,1484.5,94.75,1486.95,92.35z"/>
			</g>
			<g>
				<path class="st0" d="M735.36,261.32l-49.8-83.01c-0.82-1.37-2.31-2.21-3.91-2.21h-12.58c-2.52,0-4.56,2.04-4.56,4.56v78.32
					c0,2.52-2.04,4.56-4.56,4.56h-35.72c-2.52,0-4.56-2.04-4.56-4.56V43.63c0-2.52,2.04-4.56,4.56-4.56h80.97
					c26.07,0,45.94,6.36,59.61,19.08s20.51,29.46,20.51,50.23c0,16.96-4.72,31.16-14.15,42.6c-8.35,10.12-19.96,17.26-34.86,21.42
					c-2.94,0.82-4.29,4.21-2.68,6.79l48.29,77.37c1.89,3.04-0.29,6.97-3.87,6.97h-38.8C737.67,263.53,736.18,262.69,735.36,261.32z
					 M664.52,140.7c0,2.52,2.04,4.56,4.56,4.56h32.32c25.64,0,38.47-11.34,38.47-34.02c0-10.81-3.13-19.23-9.38-25.28
					s-15.95-9.06-29.09-9.06h-32.32c-2.52,0-4.56,2.04-4.56,4.56V140.7z"/>
				<g>
					<path class="st1" d="M588.33,259.61c-2.44,4.38-6.78,3.37-10.63,3.37c-91.68,0.02-183.36,0.04-275.03,0.02
						c-5.87,0-9.39-6.52-6.16-11.42l76.51-116.84c0.22-0.25,0.41-0.53,0.61-0.82c1.24-1.88,2.21-3.31,2.9-4.53v-0.02l10.8-16.5
						l0.04-0.04c1.09-1.56,1.82-2.58,2.5-3.63c15.09-22.88,30.15-45.77,45.23-68.67c4.18-6.34,9.32-6.28,13.51,0.13
						c3.64,5.56,7.3,11.11,10.95,16.64c42,63.72,83.97,127.41,125.95,191.13C587.72,251.8,590.81,255.11,588.33,259.61z"/>
				</g>
				<path class="st0" d="M860.32,43.85v215.12c0,2.51-2.04,4.55-4.55,4.55h-35.68c-2.51,0-4.55-2.04-4.55-4.55V43.85
					c0-2.51,2.04-4.55,4.55-4.55h35.68C858.28,39.3,860.32,41.34,860.32,43.85z"/>
				<path class="st0" d="M1142.67,46.39v212.58c0,2.51-2.04,4.55-4.55,4.55h-35.36c-2.51,0-4.55-2.04-4.55-4.55V134.44
					c0-5.08-7.07-6.34-8.82-1.57l-46.93,127.68c-0.66,1.79-2.36,2.98-4.27,2.98h-32.4c-1.91,0-3.61-1.19-4.27-2.98L954.58,133.4
					c-1.76-4.77-8.82-3.51-8.82,1.58v124c0,2.51-2.04,4.55-4.55,4.55h-35.68c-2.51,0-4.55-2.04-4.55-4.55V46.39
					c0-2.51,2.04-4.55,4.55-4.55h46.69c1.86,0,3.53,1.13,4.22,2.85l61.92,153.34c1.54,3.81,6.94,3.79,8.45-0.03l60.73-153.29
					c0.69-1.74,2.37-2.88,4.23-2.88h46.35C1140.63,41.84,1142.67,43.88,1142.67,46.39z"/>
			</g>
		</g>
		<path class="st0" d="M127.37,163.18c9.27,11.08,18.41,22,27.54,32.92c4.8,5.75,9.61,11.49,14.39,17.25
			c2.1,2.53,4.65,3.73,8.03,3.66c6.87-0.15,13.76,0.1,20.63-0.12c1.61-0.05,3.75-0.94,4.56-2.16c0.54-0.81-0.48-3.21-1.44-4.38
			c-18.35-22.62-36.8-45.16-55.22-67.72c-0.58-0.71-1.08-1.48-1.6-2.2c16.74-30.6,88.84-97.53,107.34-99.28
			c-3.9,5.29-7.63,10.34-11.4,15.45c3.86,4.06,7.76,7.81,11.26,11.92c11.88,13.91,20.37,29.73,25.07,47.38
			c10.2,38.28,5.71,74.63-16.23,107.97c-18.95,28.8-45.94,46.33-79.64,53.23c-19.34,3.96-38.66,3.79-57.68-2.34
			c-17.56-5.66-26.8-18.18-27.28-36.55c-0.41-15.56,4.24-29.76,11.65-43.05c5.88-10.54,12.68-20.57,19.08-30.83
			C126.65,164,126.93,163.72,127.37,163.18z"/>
		<g>
			<path class="st1" d="M225.62,47.63c-49.94,26.36-88.57,64.95-123.04,108.53c2.15-4.06,4.22-8.16,6.48-12.17
				c1.51-2.68,3.02-5.42,4.98-7.76c2.99-3.56,3.57-7.49,3.5-11.96c-0.2-12.73-0.05-25.46-0.06-38.19c0-5.87-2.7-8.62-8.62-8.69
				c-4.1-0.05-8.2-0.03-12.3,0.05c-3.6,0.08-6.3,2.74-6.58,6.33c-0.05,0.71-0.02,1.44-0.02,2.16c0,29.05,0.03,58.11-0.06,87.16
				c-0.01,1.83-0.59,3.91-1.57,5.44c-9.92,15.4-15.83,32.16-16.55,50.47c-0.25,6.37,0.84,12.84,1.82,19.18
				c0.42,2.71,2.12,5.23,3.06,7.43c-8.37-4.01-29.77-29.58-38.09-45.92c-9.45-18.55-14.13-38.41-13.3-59.04
				c2.12-52.59,27.23-90.96,75.1-112.64C143.32,18.55,185.52,22.66,225.62,47.63z"/>
		</g>
	</g>
</g>
</svg>
