<?xml version="1.0" encoding="utf-8"?>
<!-- Generator: Adobe Illustrator 23.1.0, SVG Export Plug-In . SVG Version: 6.00 Build 0)  -->
<svg version="1.1" id="Layer_1" xmlns="http://www.w3.org/2000/svg" xmlns:xlink="http://www.w3.org/1999/xlink" x="0px" y="0px"
	 viewBox="0 0 2000 2000" style="enable-background:new 0 0 2000 2000;" xml:space="preserve">
<style type="text/css">
	.st0{fill:#1253C1;}
	.st1{fill:#FC8008;}
</style>
<g>
	<path class="st0" d="M1898.01,1340.86c-53.66,143.86-137.6,267.84-252.37,369.59c-47.54,42.15-98.16,81.13-154.4,112.2
		c-102.81,56.79-211.14,97.61-327.48,115.1c-49.15,7.41-98.76,12.93-131.76,11c-117.31-0.55-215.42-12.84-307.32-56.1
		c-96.83-45.56-146.53-124.16-155.64-229.27c-8.84-102.39,15.28-198.67,57.25-291.22c43.76-96.37,100.69-184.95,160.56-271.84
		c14.13-20.48,19.93-21.12,37.37-1.89c15.42,16.98,29.91,34.84,44.78,52.42c39.72,47.03,79.57,93.97,119.1,141.19
		c41.65,49.79,83.99,99.13,124.12,150.12c20.34,25.82,43.44,37.51,76.67,36.08c48.18-2.12,96.55-0.46,144.83-0.18
		c13.62,0.09,26.14-1.43,33.18-15.19c7.36-14.4-3.27-22.78-10.86-32.08c-137.92-168.85-275.75-337.79-414.04-506.4
		c-10.54-12.84-12.61-21.08-1.29-36.13c109.25-145.38,227.71-282.84,356.93-410.68c66.5-65.81,136.91-128.12,213.72-182.06
		c57.53-40.41,116.71-78.46,175.7-116.75c13.02-8.47,33.23-22.69,42.48-12.75c8.51,9.07-12.56,23.79-20.71,35.76
		c-15.51,22.73-31.85,44.96-49.24,66.31c-9.3,11.46-8.56,18.18,2.9,27.34c40.08,32.17,72.57,72.11,102.16,113.21
		c41,56.93,77.87,116.25,106.72,181.6c35.57,80.72,61.3,163.05,75.15,249.52C1973.9,1010.9,1958.71,1178.23,1898.01,1340.86z"/>
	<path class="st1" d="M1545.96,218.48c-379.3,195.72-671.8,490.11-930.8,822.79c10.31-38.2,29.41-71.61,48.92-104.65
		c17.95-30.28,37.69-59.55,57.3-88.77c5.84-8.7,8.74-17.12,8.7-27.61c-0.23-107.36,0.05-214.73-0.14-322.09
		c-0.09-35.21-23.56-58.77-58.54-59.23c-30.7-0.41-61.39-0.46-92.04,0.05c-27.15,0.46-48.97,21.72-51.04,48.83
		c-0.51,6.9-0.28,13.81-0.28,20.71c0.05,216.25,0.05,432.5,0.32,648.75c0.05,13.62-3.91,24.62-11.28,36.22
		c-88.91,139.49-134.79,290.71-122.23,457.39c3.45,45.51,17.17,87.67,41.14,126.51l-0.28,0.32c-23.88-8.84-37.87-30.28-55.82-46.07
		C195.31,1569.4,79.11,1369.44,48.69,1123.05C14.82,848.59,84.08,603.3,261.44,391.24C387.31,240.75,549.12,143.42,737.11,88.98
		c144.5-41.83,291.26-48.51,439.03-23.56c124.99,21.12,242.53,63.69,348.83,134.33C1531.87,204.35,1539.93,207.76,1545.96,218.48z"
		/>
	<path class="st1" d="M700.4,1090.09c-1.44,1.68-1.44,0.15-1.68-0.79l0.13-0.15C699.37,1089.45,699.87,1089.76,700.4,1090.09z"/>
</g>
</svg>
